<?xml version="1.0" encoding="iso-8859-1"?>
<!-- Generator: Adobe Illustrator 19.0.0, SVG Export Plug-In . SVG Version: 6.00 Build 0)  -->
<svg version="1.1" id="Capa_1" xmlns="http://www.w3.org/2000/svg" xmlns:xlink="http://www.w3.org/1999/xlink" x="0px" y="0px"
	 viewBox="0 0 48 48" style="enable-background:new 0 0 48 48;" xml:space="preserve">
<g>
	<g>
		<path d="M22,0H1C0.447,0,0,0.447,0,1v21c0,0.553,0.447,1,1,1h21c0.553,0,1-0.447,1-1V1C23,0.447,22.553,0,22,0z M21,21H2V2h19V21z
			"/>
		<path d="M22,25H1c-0.553,0-1,0.447-1,1v21c0,0.553,0.447,1,1,1h21c0.553,0,1-0.447,1-1V26C23,25.447,22.553,25,22,25z M21,46H2V27
			h19V46z"/>
		<path d="M47,25H26c-0.553,0-1,0.447-1,1v21c0,0.553,0.447,1,1,1h21c0.553,0,1-0.447,1-1V26C48,25.447,47.553,25,47,25z M46,46H27
			V27h19V46z"/>
		<path d="M47,0H26c-0.553,0-1,0.447-1,1v21c0,0.553,0.447,1,1,1h21c0.553,0,1-0.447,1-1V1C48,0.447,47.553,0,47,0z M46,21H27V2h19
			V21z"/>
	</g>
</g>
<g>
</g>
<g>
</g>
<g>
</g>
<g>
</g>
<g>
</g>
<g>
</g>
<g>
</g>
<g>
</g>
<g>
</g>
<g>
</g>
<g>
</g>
<g>
</g>
<g>
</g>
<g>
</g>
<g>
</g>
</svg>
